<?xml version="1.0" encoding="utf-8"?>
<svg height="800px" width="800px" version="1.1" id="Capa_1" viewBox="0 0 312.964 312.964" xmlns="http://www.w3.org/2000/svg">
  <defs/>
  <g>
    <g>
      <path style="fill: rgb(107, 107, 107);" d="M204.293,108.732c-8.925-8.909-19.075-16.388-29.344-21.626&#10;&#9;&#9;&#9;c-6.005-3.062-13.358-0.685-16.421,5.325c-3.062,6.005-0.685,13.358,5.325,16.421c8.023,4.09,16.029,10.019,23.17,17.149&#10;&#9;&#9;&#9;c10.617,10.617,18.531,23.23,21.691,34.598c2.518,8.964,1.887,16.165-1.702,19.755L101.908,285.469&#10;&#9;&#9;&#9;c-8.104,8.104-33.08,1.284-54.342-19.989c-21.283-21.283-28.104-46.248-19.999-54.358l38.171-38.177&#10;&#9;&#9;&#9;c4.77-4.765,4.77-12.494,0-17.258c-4.765-4.765-12.499-4.765-17.258,0l-38.171,38.177C-9,213.168-0.232,252.209,30.297,282.739&#10;&#9;&#9;&#9;c19.592,19.591,42.686,30.225,61.815,30.225c10.682,0,20.141-3.312,27.054-10.236l105.11-105.115&#10;&#9;&#9;&#9;c10.149-10.149,12.983-25.618,7.974-43.578C227.909,138.517,217.994,122.428,204.293,108.732z"/>
      <path style="fill: rgb(107, 107, 107);" d="M282.665,30.366C268.964,16.671,252.88,6.75,237.368,2.415&#10;&#9;&#9;&#9;c-17.954-5.004-33.434-2.176-43.578,7.968L88.675,115.493c-10.144,10.149-12.978,25.629-7.957,43.589&#10;&#9;&#9;&#9;c4.324,15.512,14.256,31.596,27.946,45.291c8.92,8.915,19.075,16.404,29.349,21.642c1.773,0.908,3.666,1.333,5.542,1.333&#10;&#9;&#9;&#9;c4.433,0,8.724-2.431,10.884-6.657c3.062-6.005,0.669-13.358-5.33-16.421c-8.034-4.09-16.04-10.03-23.176-17.16&#10;&#9;&#9;&#9;c-10.617-10.617-18.52-23.219-21.696-34.592c-2.502-8.964-1.871-16.17,1.719-19.766L211.059,27.647&#10;&#9;&#9;&#9;c3.59-3.584,10.786-4.221,19.755-1.708c11.373,3.171,23.981,11.079,34.598,21.686c21.261,21.272,28.093,46.248,19.989,54.363&#10;&#9;&#9;&#9;l-38.171,38.171c-4.77,4.77-4.77,12.494,0,17.258c4.77,4.77,12.493,4.77,17.264,0l38.177-38.166&#10;&#9;&#9;&#9;C321.962,99.932,313.183,60.89,282.665,30.366z"/>
    </g>
  </g>
</svg>