<?xml version="1.0" encoding="utf-8"?>
<svg width="800px" height="800px" viewBox="0 0 100 100" aria-hidden="true" role="img" class="iconify iconify--gis" preserveAspectRatio="xMidYMid meet" xmlns="http://www.w3.org/2000/svg">
  <defs/>
  <path d="M 40 0 C 17.923 0 0 17.923 0 40 C 0 62.077 17.923 80 40 80 C 62.037 80 79.929 62.141 79.994 40.118 C 79.998 40.079 80 40.039 80 40 C 80 39.965 79.998 39.929 79.995 39.894 C 79.938 17.866 62.042 0 40 0 Z M 40 2.4 C 40.376 2.4 40.747 2.417 41.12 2.428 C 44.096 3.158 46.444 3.784 47.126 6.68 C 50.294 8.642 53.427 10.395 55.623 13.28 C 53.874 13.792 51.305 12.941 51.687 10.854 C 50.542 12.439 49.951 11.736 48.394 11.713 C 49.61 11.98 50.094 14.475 51.667 13.039 C 53.561 14.935 49.081 15.81 48.136 15.09 C 45.718 15.314 48.611 17.77 45.71 17.587 C 43.431 19.342 45.129 22.292 41.91 23.114 C 37.868 24.317 43.787 29.692 39.749 30.349 C 39.59 28.632 38.485 25.581 35.931 25.625 C 33.497 27.336 28.163 24.391 27.714 29.177 C 25.985 31.509 27.946 36.452 31.07 34.7 C 31.664 33.016 36.648 30.784 35.382 34.042 C 34.876 36.08 33.419 37.964 36.323 37.247 C 40.409 37.418 37.511 40.875 38.923 42.866 C 40.507 43.758 42.926 43.418 44.547 43.342 C 44.962 40.633 49.267 40.796 49.533 40.69 C 49.982 39.567 52.129 40.718 51.79 41.944 C 54.516 41.885 53.885 40.28 56.436 41.492 C 58.508 39.573 56.964 43.732 59.48 44.022 C 61.159 45.706 64.98 44.138 65.323 47.718 C 66.245 51.126 71.295 49.028 72.933 51.402 C 72.838 55.049 69.757 57.646 68.803 61.066 C 67.283 64.87 62.862 65.744 60.867 69.118 C 58.006 71.71 54.803 73.577 51.367 75.138 C 50.691 75.523 49.549 76.077 48.556 76.611 C 46.686 77.046 44.785 77.336 42.87 77.48 C 43.242 76.482 44.993 75.296 45.326 74.269 C 46.606 71.485 50.482 67.177 47.075 64.762 C 44.55 64.319 43.786 62.011 42.582 60.298 C 41.82 58.002 38.478 56.276 40.333 54.11 C 39.456 52.007 42.354 50.049 43.285 48.3 C 43.573 46.431 41.733 43.444 40.723 45.924 C 38.658 45.286 36.139 43.945 35.402 41.777 C 33.208 40.333 30.166 38.775 28.046 37.764 C 25.401 37.886 22.986 35.97 21.058 34.372 C 20.87 31.591 19.215 28.156 17.88 26.364 C 19.09 28.232 18.906 33.263 16.958 29.068 C 16.398 27.164 16.115 24.677 16 22.554 C 14.547 21.575 15.222 17.316 16.644 15.541 C 18.232 14.301 19.522 10.626 19.441 10.008 C 18.544 10.331 19.983 8.794 20.672 7.741 C 26.509 4.236 33.192 2.39 40 2.4 Z M 45.428 2.795 C 47.841 3.143 50.214 3.727 52.513 4.538 C 52.547 4.626 52.582 4.715 52.631 4.818 C 56.057 8.718 49.109 5.197 47.664 4.03 C 47.167 3.605 46.336 3.164 45.428 2.795 Z M 40.761 3.786 C 39.882 3.83 39.182 4.266 40.337 4.934 C 39.606 6.787 35.118 4.23 35.067 7 C 36.458 8.354 39.414 8.214 40.556 9.58 C 39.558 7.751 42.145 7.274 41.38 8.422 C 41.242 9.232 42.358 7.176 41.226 7.731 C 40.869 5.569 39.677 5.439 42.174 4.159 C 41.88 3.872 41.288 3.759 40.761 3.786 Z M 42.749 28.026 C 44.026 28.085 45.135 30.746 45.885 30.775 C 45.962 30.53 46.833 33.383 45.685 32.247 C 43.883 31.81 44.224 28.217 43.277 31.133 C 40.902 31.193 43.886 28.343 41.839 28.467 C 42.15 28.139 42.454 28.013 42.749 28.027 L 42.749 28.026 Z M 39.766 30.872 C 42.301 30.949 44.714 33.928 46.617 32.589 C 47.333 33.133 47.518 34.474 49.73 34.141 C 52.444 35.023 50.957 36.112 49.298 35.925 C 48.797 35.85 48.526 36.934 48.078 36.154 C 47.003 36.278 44.509 35.59 46.587 34.797 C 46.595 33.001 42.811 36.126 42.794 33.773 C 41.102 33.172 39.962 32.009 38.554 33.198 C 37.77 32.581 35.776 32.64 37.995 31.372 C 38.519 31.026 39.138 30.851 39.766 30.872 Z M 55.051 35.094 C 55.347 34.978 56.104 36.526 56.371 35.403 C 56.888 36.763 58.268 40.486 56.446 40.687 C 57.392 38.687 55.839 36.87 54.933 35.492 C 54.941 35.236 54.983 35.12 55.051 35.094 Z" style="fill: rgb(105, 105, 105);"/>
</svg>