<?xml version="1.0" encoding="utf-8"?>
<svg height="800px" width="800px" version="1.1" id="Layer_1" viewBox="0 0 512 512" xmlns="http://www.w3.org/2000/svg">
  <defs/>
  <path style="fill: rgb(255, 248, 248);" d="M256,8.018c-132.25,0-239.459,99.552-239.459,222.354c0,78.978,44.348,148.332,111.177,187.779&#10;&#9;v85.888l63.15-59.641c20.709,5.423,42.554,8.329,65.132,8.329c132.25,0,239.459-99.552,239.459-222.354S388.249,8.018,256,8.018z"/>
  <path style="fill: rgb(255, 255, 255);" d="M161.927,471.731v-62.132C95.098,370.152,50.75,300.799,50.75,221.82&#10;&#9;c0-96.979,66.868-179.441,160.12-209.842C100.2,31.581,16.541,121.897,16.541,230.372c0,78.978,44.348,148.332,111.177,187.779&#10;&#9;v85.888L161.927,471.731z"/>
  <polygon style="fill: rgb(8, 102, 255);" points="84.958 324.445 189.967 209.493 218.854 177.36 290.208 230.372 435.594 170.507 290.208 324.445 221.791 264.58"/>
  <polygon style="fill: rgb(8, 102, 255);" points="290.208,290.237 221.791,230.372 134.716,268.467 84.958,324.445 221.791,264.58 &#10;&#9;290.208,324.445 435.594,170.507 382.727,192.277 "/>
  <path d="M432.557,68.936c-3.213-3.046-8.289-2.909-11.335,0.305c-3.046,3.215-2.91,8.288,0.305,11.335&#10;&#9;c42.505,40.278,65.914,93.477,65.914,149.796c0,118.186-103.825,214.337-231.441,214.337c-21.428,0-42.659-2.714-63.101-8.067&#10;&#9;c-2.676-0.701-5.525,0.028-7.535,1.927l-49.628,46.87v-67.288c0-2.837-1.499-5.463-3.943-6.904&#10;&#9;C64.647,371.611,24.559,303.995,24.559,230.372C24.559,112.186,128.383,16.035,256,16.035c47.712,0,93.521,13.337,132.476,38.568&#10;&#9;c3.716,2.406,8.681,1.347,11.088-2.371c2.407-3.717,1.346-8.68-2.371-11.088C355.637,14.227,306.813,0,256,0&#10;&#9;C190.008,0,127.938,23.89,81.222,67.269C34.342,110.8,8.524,168.724,8.524,230.372c0,39.565,10.956,78.593,31.686,112.863&#10;&#9;c19.277,31.873,46.699,59.261,79.492,79.445v81.359c0,6.871,8.505,10.567,13.523,5.829l59.949-56.618&#10;&#9;c20.426,4.974,41.538,7.495,62.827,7.495c65.992,0,128.062-23.89,174.779-67.269c46.879-43.531,72.697-101.456,72.697-163.103&#10;&#9;C503.476,169.605,478.29,112.273,432.557,68.936z" style="fill: rgb(8, 102, 255);"/>
  <path d="M 208.112 178.188 C 204.801 175.246 167.428 219.598 164.487 222.908 L 78.966 319.119 C 76.572 321.812 76.288 325.898 78.288 328.894 C 80.419 332.087 84.652 333.33 88.172 331.791 L 220.342 273.966 L 284.928 330.479 C 288.171 333.316 293.078 333.083 296.037 329.95 L 441.423 176.012 C 444.027 173.254 444.318 168.919 442.109 165.837 C 439.969 162.849 435.941 161.691 432.541 163.093 L 291.749 221.066 L 227.072 164.473 C 223.758 161.575 218.725 161.889 215.8 165.181 L 192.995 190.837 C 190.093 194.102 147.32 243.307 150.586 246.21 C 153.851 249.112 202.078 204.756 204.98 201.49 L 222.501 181.78 L 284.93 236.407 C 287.221 238.41 290.447 238.945 293.262 237.787 L 404.15 192.128 L 289.679 313.328 L 227.071 258.545 C 224.732 256.499 221.424 255.987 218.578 257.233 L 115.241 302.444 L 176.472 233.559 C 179.414 230.251 211.421 181.129 208.112 178.188 Z" style="fill: rgb(8, 102, 255);"/>
</svg>