<?xml version="1.0" encoding="utf-8"?>
<svg fill="#000000" height="800px" width="800px" version="1.1" id="Layer_1" viewBox="0 0 512 512" xmlns="http://www.w3.org/2000/svg">
  <defs/>
  <ellipse style="stroke: rgb(0, 0, 0); fill: rgb(240, 240, 240);" cx="255.022" cy="260.351" rx="221.737" ry="222.715"/>
  <g transform="matrix(1, 0, 0, 1, -0.978967, 2.936903)">
    <g>
      <path d="M 491.841 156.427 C 472.37 110.481 439.905 71.414 399.055 43.79 C 358.217 16.166 308.893 -0.007 256 0 C 220.746 -0.002 187.054 7.18 156.429 20.158 C 110.484 39.63 71.416 72.093 43.791 112.943 C 16.167 153.779 -0.007 203.104 0 256 C -0.002 291.255 7.181 324.948 20.159 355.573 C 39.63 401.519 72.096 440.586 112.945 468.21 C 153.783 495.834 203.107 512.007 256 512 C 291.253 512.002 324.946 504.82 355.571 491.842 C 401.516 472.371 440.584 439.907 468.209 399.057 C 495.834 358.22 512.007 308.894 512 256 C 512.002 220.744 504.819 187.052 491.841 156.427 Z M 454.539 342.257 C 437.688 382.038 415.368 415.981 379.937 439.934 C 344.494 463.887 301.917 477.86 256.001 477.867 C 225.382 477.865 196.272 471.649 169.746 460.413 C 129.965 443.563 116.58 396.769 92.627 361.338 C 68.672 325.895 54.698 305.833 54.691 259.916 C 54.693 229.296 53.079 200.185 64.314 173.659 C 81.165 133.878 108.38 110.704 143.811 86.751 C 179.254 62.797 219.874 43.929 265.79 43.922 C 296.409 43.924 320.624 48.182 347.15 59.418 C 386.931 76.268 413.042 113.272 436.995 148.703 C 460.948 184.146 463.174 207.144 463.181 253.062 C 463.179 283.683 465.774 315.731 454.539 342.257 Z" style="fill: rgb(240, 240, 240);"/>
    </g>
  </g>
  <g transform="matrix(1, 0, 0, 1, -3.91587, 12.726578)">
    <g>
      <path d="M 360.646 250.895 L 198.593 96.49 C 190.907 91.392 178.586 93.49 173.488 101.175 C 168.389 108.86 174.404 124.119 182.089 129.217 L 321.204 264.812 L 182.088 395.512 C 174.402 400.61 167.409 417.826 172.508 425.512 C 177.607 433.198 190.906 434.317 198.592 429.218 L 360.645 278.727 C 365.297 275.641 368.113 270.394 368.113 264.811 C 368.113 259.228 365.298 253.981 360.646 250.895 Z" style="transform-box: fill-box; transform-origin: 50% 50%;" transform="matrix(0, 1, -1, 0, -9.007431, 12.596612)"/>
    </g>
  </g>
</svg>